<svg xmlns="http://www.w3.org/2000/svg" width="1200" height="675" viewBox="0 0 1200 675" role="img" aria-labelledby="title desc">
  <title id="title">Bail Is the Rule — UAPA Bail Jurisprudence After 2026</title>
  <desc id="desc">UAPA bail jurisprudence after the Supreme Court’s 2026 observations explained by Chambers of AK.</desc>
  <defs>
    <linearGradient id="bg" x1="0" y1="0" x2="1" y2="1"><stop offset="0" stop-color="#050505"/><stop offset="0.55" stop-color="#111111"/><stop offset="1" stop-color="#000000"/></linearGradient>
    <radialGradient id="glow" cx="73%" cy="25%" r="70%"><stop offset="0" stop-color="#d4af37" stop-opacity="0.26"/><stop offset="0.62" stop-color="#d4af37" stop-opacity="0.06"/><stop offset="1" stop-color="#d4af37" stop-opacity="0"/></radialGradient>
    <linearGradient id="gold" x1="0" y1="0" x2="1" y2="1"><stop offset="0" stop-color="#fff0a8"/><stop offset="0.48" stop-color="#d4af37"/><stop offset="1" stop-color="#8a6819"/></linearGradient>
    <pattern id="grid" width="46" height="46" patternUnits="userSpaceOnUse"><path d="M46 0H0V46" fill="none" stroke="#fff" stroke-opacity="0.035" stroke-width="1"/></pattern>
    <filter id="shadow" x="-25%" y="-25%" width="150%" height="150%"><feDropShadow dx="0" dy="20" stdDeviation="16" flood-color="#000" flood-opacity="0.55"/></filter>
  </defs>
  <rect width="1200" height="675" fill="url(#bg)"/>
  <rect width="1200" height="675" fill="url(#glow)"/>
  <rect width="1200" height="675" fill="url(#grid)"/>
  <rect x="34" y="34" width="1132" height="607" rx="30" fill="none" stroke="#d4af37" stroke-opacity="0.55" stroke-width="2"/>
  <rect x="54" y="54" width="1092" height="567" rx="22" fill="none" stroke="#fff" stroke-opacity="0.10"/>
  <g transform="translate(94 112)" opacity="0.86" filter="url(#shadow)">
    <path d="M54 142C98 78 171 44 254 44s156 34 200 98" fill="none" stroke="url(#gold)" stroke-width="7" stroke-linecap="round"/>
    <path d="M82 142H426" stroke="#f7e6a0" stroke-width="5" stroke-linecap="round"/>
    <path d="M124 169V314M190 169V314M256 169V314M322 169V314M388 169V314" stroke="#d4af37" stroke-opacity="0.58" stroke-width="5" stroke-linecap="round"/>
    <path d="M100 325H410" stroke="url(#gold)" stroke-width="8" stroke-linecap="round"/>
    <path d="M70 354H440" stroke="#fff" stroke-opacity="0.21" stroke-width="3" stroke-linecap="round"/>
  </g>
  <g transform="translate(760 124)" opacity="0.78" filter="url(#shadow)">
    <rect x="0" y="0" width="276" height="350" rx="24" fill="#fff" fill-opacity="0.055" stroke="#d4af37" stroke-opacity="0.46"/>
    <path d="M42 72H234M42 120H220M42 168H236M42 216H196" stroke="#fff" stroke-opacity="0.25" stroke-width="7" stroke-linecap="round"/>
    <path d="M42 280H156" stroke="url(#gold)" stroke-width="6" stroke-linecap="round"/>
    <text x="42" y="48" font-family="Georgia, 'Times New Roman', serif" font-size="26" fill="#f4df8a">Bail Order</text>
  </g>
  <g transform="translate(590 230)" filter="url(#shadow)">
    <path d="M0 0V184" stroke="url(#gold)" stroke-width="5" stroke-linecap="round"/>
    <path d="M-84 38H84" stroke="url(#gold)" stroke-width="5" stroke-linecap="round"/>
    <circle cx="0" cy="0" r="10" fill="#f4df8a"/>
    <path d="M-68 38L-106 112M-68 38L-30 112M68 38L30 112M68 38L106 112" stroke="#d4af37" stroke-opacity="0.78" stroke-width="3"/>
    <path d="M-130 112H-6C-18 142-118 142-130 112Z" fill="#fff" fill-opacity="0.08" stroke="#d4af37" stroke-opacity="0.62" stroke-width="3"/>
    <path d="M6 112H130C118 142 18 142 6 112Z" fill="#fff" fill-opacity="0.08" stroke="#d4af37" stroke-opacity="0.62" stroke-width="3"/>
    <path d="M-44 197H44M-72 221H72" stroke="#d4af37" stroke-opacity="0.75" stroke-width="5" stroke-linecap="round"/>
  </g>
  <g transform="translate(92 450)">
    <rect x="0" y="-42" width="680" height="168" rx="24" fill="#000" fill-opacity="0.48" stroke="#d4af37" stroke-opacity="0.28"/>
    <text x="30" y="24" font-family="Georgia, 'Times New Roman', serif" font-size="70" font-weight="700" fill="#fff">Bail Is the Rule</text>
    <text x="34" y="78" font-family="Arial, Helvetica, sans-serif" font-size="24" font-weight="700" fill="url(#gold)" letter-spacing="2.2">UAPA BAIL JURISPRUDENCE AFTER 2026</text>
    <text x="34" y="116" font-family="Arial, Helvetica, sans-serif" font-size="20" fill="#fff" fill-opacity="0.76" letter-spacing="1.3">Section 43D(5) • Article 21 • Speedy Trial</text>
  </g>
  <g transform="translate(890 548)">
    <path d="M0 0H206" stroke="#d4af37" stroke-opacity="0.78" stroke-width="2"/>
    <text x="0" y="38" font-family="Georgia, 'Times New Roman', serif" font-size="24" fill="#fff" fill-opacity="0.84" letter-spacing="2">CHAMBERS OF AK</text>
    <text x="1" y="66" font-family="Arial, Helvetica, sans-serif" font-size="11" fill="#d4af37" letter-spacing="2.7">ADVOCATES &amp; LEGAL CONSULTANTS</text>
  </g>
  <path d="M978 72C1062 135 1110 212 1124 306" fill="none" stroke="#d4af37" stroke-opacity="0.24" stroke-width="2"/>
</svg>