<svg xmlns="http://www.w3.org/2000/svg" width="1200" height="675" viewBox="0 0 1200 675" role="img" aria-labelledby="title desc">
  <title id="title">Section 34 arbitration limitation thumbnail</title>
  <desc id="desc">Premium black white and gold editorial thumbnail for Chambers of AK explaining the Section 34 arbitration limitation 3 months plus 30 days rule.</desc>
  <defs>
    <linearGradient id="bg" x1="0" y1="0" x2="1" y2="1">
      <stop offset="0" stop-color="#030303"/>
      <stop offset="0.48" stop-color="#111111"/>
      <stop offset="1" stop-color="#2a210b"/>
    </linearGradient>
    <radialGradient id="glow" cx="72%" cy="20%" r="58%">
      <stop offset="0" stop-color="#d4af37" stop-opacity="0.28"/>
      <stop offset="0.52" stop-color="#d4af37" stop-opacity="0.08"/>
      <stop offset="1" stop-color="#000000" stop-opacity="0"/>
    </radialGradient>
    <filter id="shadow" x="-20%" y="-20%" width="140%" height="140%">
      <feDropShadow dx="0" dy="18" stdDeviation="18" flood-color="#000" flood-opacity="0.45"/>
    </filter>
    <pattern id="grain" width="90" height="90" patternUnits="userSpaceOnUse">
      <path d="M0 89H90M89 0V90" stroke="#fff" stroke-opacity="0.018"/>
      <circle cx="18" cy="26" r="1" fill="#fff" opacity="0.055"/>
      <circle cx="73" cy="61" r="1" fill="#d4af37" opacity="0.075"/>
    </pattern>
  </defs>
  <rect width="1200" height="675" fill="url(#bg)"/>
  <rect width="1200" height="675" fill="url(#glow)"/>
  <rect width="1200" height="675" fill="url(#grain)"/>
  <path d="M72 110H1128" stroke="#d4af37" stroke-width="1.4" opacity="0.55"/>
  <path d="M72 566H1128" stroke="#d4af37" stroke-width="1.4" opacity="0.55"/>
  <path d="M112 514H570" stroke="#d4af37" stroke-width="3" opacity="0.95"/>
  <g filter="url(#shadow)" transform="translate(724 140)">
    <rect x="0" y="44" width="300" height="370" rx="24" fill="#f7f3e7" opacity="0.96"/>
    <path d="M52 118H248M52 166H248M52 214H210M52 262H238M52 310H180" stroke="#181818" stroke-width="8" stroke-linecap="round" opacity="0.46"/>
    <path d="M0 84H300" stroke="#d4af37" stroke-width="18"/>
    <circle cx="70" cy="84" r="15" fill="#111"/>
    <circle cx="230" cy="84" r="15" fill="#111"/>
    <path d="M38 356H262" stroke="#d4af37" stroke-width="4" opacity="0.95"/>
    <text x="150" y="390" text-anchor="middle" font-family="Georgia, 'Times New Roman', serif" font-size="38" font-weight="700" fill="#111">34</text>
  </g>
  <g transform="translate(915 308)">
    <circle cx="92" cy="92" r="79" fill="#0d0d0d" stroke="#d4af37" stroke-width="5" filter="url(#shadow)"/>
    <circle cx="92" cy="92" r="5" fill="#d4af37"/>
    <path d="M92 92V45" stroke="#fff" stroke-width="6" stroke-linecap="round"/>
    <path d="M92 92L130 115" stroke="#d4af37" stroke-width="6" stroke-linecap="round"/>
    <path d="M92 25V38M92 146V159M25 92H38M146 92H159" stroke="#fff" stroke-width="3" stroke-linecap="round" opacity="0.72"/>
  </g>
  <g transform="translate(92 164)">
    <text x="0" y="0" font-family="Montserrat, Arial, sans-serif" font-size="22" letter-spacing="6" fill="#d4af37">CHAMBERS OF AK</text>
    <text x="0" y="108" font-family="Georgia, 'Times New Roman', serif" font-size="78" font-weight="700" fill="#ffffff">SECTION 34</text>
    <text x="0" y="190" font-family="Georgia, 'Times New Roman', serif" font-size="70" font-weight="700" fill="#ffffff">LIMITATION</text>
    <text x="0" y="276" font-family="Montserrat, Arial, sans-serif" font-size="37" font-weight="700" letter-spacing="2" fill="#d4af37">3 MONTHS + 30 DAYS</text>
    <text x="0" y="333" font-family="Montserrat, Arial, sans-serif" font-size="25" fill="#f6f0dc" opacity="0.86">Arbitral Award Challenge Timeline</text>
  </g>
  <path d="M96 92L154 34M1037 586L1104 519" stroke="#d4af37" stroke-width="2" opacity="0.5"/>
</svg>
