<svg xmlns="http://www.w3.org/2000/svg" width="1200" height="675" viewBox="0 0 1200 675" role="img" aria-labelledby="title desc">
  <title id="title">PMLA pre-cognizance hearing under BNSS thumbnail</title>
  <desc id="desc">Premium black white and gold editorial thumbnail explaining pre-cognizance hearing of accused in PMLA complaints after BNSS.</desc>
  <defs>
    <linearGradient id="bg" x1="0" y1="0" x2="1" y2="1"><stop offset="0" stop-color="#020202"/><stop offset="0.55" stop-color="#111"/><stop offset="1" stop-color="#271f0b"/></linearGradient>
    <radialGradient id="glow" cx="76%" cy="22%" r="62%"><stop offset="0" stop-color="#d4af37" stop-opacity="0.24"/><stop offset="0.62" stop-color="#d4af37" stop-opacity="0.05"/><stop offset="1" stop-color="#000" stop-opacity="0"/></radialGradient>
    <filter id="shadow" x="-30%" y="-30%" width="160%" height="160%"><feDropShadow dx="0" dy="20" stdDeviation="18" flood-color="#000" flood-opacity="0.55"/></filter>
    <pattern id="grid" width="44" height="44" patternUnits="userSpaceOnUse"><path d="M44 0H0V44" fill="none" stroke="#fff" stroke-opacity="0.035"/></pattern>
  </defs>
  <rect width="1200" height="675" fill="url(#bg)"/>
  <rect width="1200" height="675" fill="url(#glow)"/>
  <rect width="1200" height="675" fill="url(#grid)"/>
  <path d="M70 100H1130M70 575H1130" stroke="#d4af37" stroke-width="1.5" opacity=".62"/>
  <path d="M92 88V590M1110 88V590" stroke="#d4af37" stroke-width="1" opacity=".25"/>
  <g transform="translate(735 125)" filter="url(#shadow)">
    <rect x="0" y="70" width="300" height="355" rx="22" fill="#f4efe2" opacity=".96"/>
    <path d="M0 112H300" stroke="#d4af37" stroke-width="18"/>
    <text x="150" y="58" font-family="Georgia,'Times New Roman',serif" text-anchor="middle" font-size="38" fill="#f7f0d4">Complaint</text>
    <path d="M48 162H250M48 210H232M48 258H244M48 306H205" stroke="#1b1b1b" stroke-width="8" stroke-linecap="round" opacity=".42"/>
    <circle cx="74" cy="112" r="14" fill="#111"/><circle cx="226" cy="112" r="14" fill="#111"/>
    <path d="M58 365H236" stroke="#d4af37" stroke-width="5"/>
  </g>
  <g transform="translate(870 370)" filter="url(#shadow)">
    <circle cx="96" cy="96" r="78" fill="#101010" stroke="#d4af37" stroke-width="5"/>
    <path d="M96 96V48M96 96L132 120" stroke="#fff" stroke-width="6" stroke-linecap="round"/>
    <circle cx="96" cy="96" r="6" fill="#d4af37"/>
    <path d="M96 26V40M96 152V166M26 96H40M152 96H166" stroke="#d4af37" stroke-width="3"/>
  </g>
  <g transform="translate(92 164)">
    <text x="0" y="0" font-family="Arial,Helvetica,sans-serif" font-size="22" letter-spacing="6" fill="#d4af37">PMLA COMPLAINTS</text>
    <text x="0" y="106" font-family="Georgia,'Times New Roman',serif" font-size="76" font-weight="700" fill="#fff">Pre-Cognizance</text>
    <text x="0" y="188" font-family="Georgia,'Times New Roman',serif" font-size="76" font-weight="700" fill="#d4af37">Hearing</text>
    <rect x="0" y="236" width="555" height="76" rx="3" fill="none" stroke="#d4af37" stroke-width="2"/>
    <text x="32" y="287" font-family="Georgia,'Times New Roman',serif" font-size="42" fill="#fff">BNSS Section 223</text>
    <text x="0" y="365" font-family="Arial,Helvetica,sans-serif" font-size="25" fill="#f5ecd0" opacity=".88">Before Cognizance • Accused Heard</text>
  </g>
  <g transform="translate(614 198)" opacity=".88" filter="url(#shadow)">
    <path d="M0 0V178" stroke="#d4af37" stroke-width="5" stroke-linecap="round"/>
    <path d="M-75 40H75" stroke="#d4af37" stroke-width="5" stroke-linecap="round"/>
    <path d="M-58 40L-92 108M-58 40L-24 108M58 40L24 108M58 40L92 108" stroke="#d4af37" stroke-width="3"/>
    <path d="M-112 108H0C-12 137-100 137-112 108Z" fill="#fff" fill-opacity=".08" stroke="#d4af37" stroke-width="3"/>
    <path d="M0 108H112C100 137 12 137 0 108Z" fill="#fff" fill-opacity=".08" stroke="#d4af37" stroke-width="3"/>
    <path d="M-45 197H45M-70 220H70" stroke="#d4af37" stroke-width="5" stroke-linecap="round"/>
  </g>
</svg>
